<svg width="94" height="91" viewBox="0 0 94 91" fill="none" xmlns="http://www.w3.org/2000/svg">
<path d="M23.5 67.9391L38.54 37.14L70.5 22.6464L55.46 53.4454L23.5 67.9391ZM47 41.2164C45.8781 41.2164 44.8022 41.6458 44.0089 42.4103C43.2157 43.1748 42.77 44.2116 42.77 45.2927C42.77 46.3738 43.2157 47.4107 44.0089 48.1751C44.8022 48.9396 45.8781 49.369 47 49.369C48.1219 49.369 49.1978 48.9396 49.9911 48.1751C50.7843 47.4107 51.23 46.3738 51.23 45.2927C51.23 44.2116 50.7843 43.1748 49.9911 42.4103C49.1978 41.6458 48.1219 41.2164 47 41.2164ZM47 0C53.1721 0 59.2838 1.17153 64.9861 3.4477C70.6884 5.72387 75.8697 9.06011 80.234 13.2659C84.5984 17.4717 88.0604 22.4648 90.4223 27.9599C92.7843 33.4551 94 39.3448 94 45.2927C94 57.3051 89.0482 68.8254 80.234 77.3195C71.4198 85.8135 59.4652 90.5854 47 90.5854C40.8279 90.5854 34.7162 89.4139 29.0139 87.1377C23.3116 84.8615 18.1303 81.5253 13.766 77.3195C4.95177 68.8254 0 57.3051 0 45.2927C0 33.2803 4.95177 21.76 13.766 13.2659C22.5802 4.7719 34.5348 0 47 0ZM47 9.05854C37.0279 9.05854 27.4642 12.8761 20.4128 19.6713C13.3614 26.4665 9.4 35.6828 9.4 45.2927C9.4 54.9026 13.3614 64.1189 20.4128 70.9141C27.4642 77.7094 37.0279 81.5269 47 81.5269C56.9721 81.5269 66.5358 77.7094 73.5872 70.9141C80.6386 64.1189 84.6 54.9026 84.6 45.2927C84.6 35.6828 80.6386 26.4665 73.5872 19.6713C66.5358 12.8761 56.9721 9.05854 47 9.05854Z" fill="#303C4F"/>
</svg>
