<svg width="144" height="144" viewBox="0 0 144 144" fill="none" xmlns="http://www.w3.org/2000/svg">
<path d="M36 49.5C36 47.7272 36.3492 45.9717 37.0276 44.3338C37.7061 42.6959 38.7005 41.2076 39.9541 39.9541C41.2076 38.7005 42.6959 37.7061 44.3338 37.0276C45.9717 36.3492 47.7272 36 49.5 36C51.2728 36 53.0283 36.3492 54.6662 37.0276C56.3041 37.7061 57.7924 38.7005 59.0459 39.9541C60.2995 41.2076 61.2939 42.6959 61.9724 44.3338C62.6508 45.9717 63 47.7272 63 49.5C63 53.0804 61.5777 56.5142 59.0459 59.0459C56.5142 61.5777 53.0804 63 49.5 63C45.9196 63 42.4858 61.5777 39.9541 59.0459C37.4223 56.5142 36 53.0804 36 49.5ZM49.5 27C43.5326 27 37.8097 29.3705 33.5901 33.5901C29.3705 37.8097 27 43.5326 27 49.5C27 55.4674 29.3705 61.1903 33.5901 65.4099C37.8097 69.6295 43.5326 72 49.5 72C55.4674 72 61.1903 69.6295 65.4099 65.4099C69.6295 61.1903 72 55.4674 72 49.5C72 43.5326 69.6295 37.8097 65.4099 33.5901C61.1903 29.3705 55.4674 27 49.5 27ZM94.5 54C94.5 51.6131 95.4482 49.3239 97.136 47.636C98.8239 45.9482 101.113 45 103.5 45C105.887 45 108.176 45.9482 109.864 47.636C111.552 49.3239 112.5 51.6131 112.5 54C112.5 56.3869 111.552 58.6761 109.864 60.364C108.176 62.0518 105.887 63 103.5 63C101.113 63 98.8239 62.0518 97.136 60.364C95.4482 58.6761 94.5 56.3869 94.5 54ZM103.5 36C98.7261 36 94.1477 37.8964 90.7721 41.2721C87.3964 44.6477 85.5 49.2261 85.5 54C85.5 58.7739 87.3964 63.3523 90.7721 66.7279C94.1477 70.1036 98.7261 72 103.5 72C108.274 72 112.852 70.1036 116.228 66.7279C119.604 63.3523 121.5 58.7739 121.5 54C121.5 49.2261 119.604 44.6477 116.228 41.2721C112.852 37.8964 108.274 36 103.5 36ZM13.5 94.5C13.5 90.9196 14.9223 87.4858 17.4541 84.9541C19.9858 82.4223 23.4196 81 27 81H72C75.5804 81 79.0142 82.4223 81.5459 84.9541C84.0777 87.4858 85.5 90.9196 85.5 94.5V95.508C85.4905 95.9202 85.4604 96.3317 85.41 96.741C84.8971 101.104 83.2734 105.263 80.694 108.819C75.771 115.614 66.411 121.5 49.5 121.5C32.598 121.5 23.238 115.614 18.297 108.819C15.7209 105.262 14.1002 101.103 13.59 96.741C13.5452 96.3312 13.5152 95.92 13.5 95.508V94.5ZM22.5 95.31V95.373L22.536 95.814C22.8845 98.6001 23.9309 101.253 25.578 103.527C28.512 107.559 34.902 112.5 49.5 112.5C64.098 112.5 70.488 107.559 73.422 103.527C75.0691 101.253 76.1155 98.6001 76.464 95.814C76.4801 95.6644 76.4921 95.5143 76.5 95.364V94.5C76.5 93.3065 76.0259 92.1619 75.182 91.318C74.3381 90.4741 73.1935 90 72 90H27C25.8065 90 24.6619 90.4741 23.818 91.318C22.9741 92.1619 22.5 93.3065 22.5 94.5V95.31ZM103.5 112.5C98.208 112.5 93.87 111.69 90.36 110.358C91.8029 107.715 92.8951 104.895 93.609 101.97C96.021 102.879 99.225 103.5 103.5 103.5C113.571 103.5 117.702 100.062 119.52 97.506C120.583 96.0151 121.257 94.2829 121.482 92.466L121.5 92.214C121.491 91.6235 121.249 91.0604 120.828 90.6462C120.407 90.232 119.841 89.9999 119.25 90H94.05C93.3856 86.7363 92.002 83.6618 90 81H119.25C125.46 81 130.5 86.04 130.5 92.25V92.403C130.489 92.7308 130.465 93.0581 130.428 93.384C130.047 96.7572 128.814 99.9781 126.846 102.744C123.048 108.063 115.929 112.5 103.5 112.5Z" fill="#303C4F"/>
</svg>
