<svg width="104" height="93" viewBox="0 0 104 93" fill="none" xmlns="http://www.w3.org/2000/svg">
<path d="M58.448 92.5128L52 88.9546L66.8571 64.0473H89.1429C90.1188 64.0487 91.0854 63.8656 91.9874 63.5085C92.8893 63.1513 93.7088 62.6272 94.3989 61.9661C95.089 61.305 95.6361 60.5199 96.0089 59.6559C96.3818 58.7919 96.5729 57.8659 96.5714 56.9309V14.2327C96.5729 13.2978 96.3818 12.3718 96.0089 11.5078C95.6361 10.6437 95.089 9.85866 94.3989 9.19757C93.7088 8.53647 92.8893 8.01234 91.9874 7.6552C91.0854 7.29807 90.1188 7.11496 89.1429 7.11637H14.8571C13.8812 7.11496 12.9146 7.29807 12.0126 7.6552C11.1107 8.01234 10.2912 8.53647 9.60108 9.19757C8.91098 9.85866 8.36385 10.6437 7.99105 11.5078C7.61825 12.3718 7.4271 13.2978 7.42857 14.2327V56.9309C7.4271 57.8659 7.61825 58.7919 7.99105 59.6559C8.36385 60.5199 8.91098 61.305 9.60108 61.9661C10.2912 62.6272 11.1107 63.1513 12.0126 63.5085C12.9146 63.8656 13.8812 64.0487 14.8571 64.0473H48.2857V71.1637H14.8571C10.9168 71.1637 7.13781 69.6641 4.35156 66.995C1.5653 64.3258 4.64561e-07 60.7057 4.64561e-07 56.9309V14.2327C-0.00048752 12.3635 0.383471 10.5126 1.12994 8.78555C1.87641 7.05854 2.97076 5.48935 4.35047 4.16763C5.73018 2.8459 7.36821 1.79755 9.17098 1.08245C10.9738 0.367355 12.9059 -0.00046703 14.8571 4.45035e-07H89.1429C91.0941 -0.00046703 93.0262 0.367355 94.829 1.08245C96.6318 1.79755 98.2698 2.8459 99.6495 4.16763C101.029 5.48935 102.124 7.05854 102.87 8.78555C103.617 10.5126 104 12.3635 104 14.2327V56.9309C104 60.7057 102.435 64.3258 99.6484 66.995C96.8622 69.6641 93.0832 71.1637 89.1429 71.1637H71.1843L58.448 92.5128Z" fill="#303C4F"/>
</svg>
