<svg width="168" height="30" viewBox="0 0 168 30" fill="none" xmlns="http://www.w3.org/2000/svg">
<path d="M84.5 1C77.0441 1 71 7.49177 71 15.5C71 23.5082 77.0441 30 84.5 30C91.9559 30 98 23.5082 98 15.5C98 7.49177 91.9559 1 84.5 1ZM87.6978 11.0201H85.6686C85.4281 11.0201 85.1609 11.3599 85.1609 11.8116V13.3854H87.6992L87.3153 15.6299H85.1609V22.3679H82.7661V15.6299H80.5934V13.3854H82.7661V12.0653C82.7661 10.1712 83.9895 8.63214 85.6686 8.63214H87.6978V11.0201Z" fill="#636161"/>
<path d="M123.719 15.5C123.719 16.7018 123.274 17.8543 122.483 18.7041C121.692 19.5539 120.619 20.0312 119.5 20.0312C118.381 20.0312 117.308 19.5539 116.517 18.7041C115.726 17.8543 115.281 16.7018 115.281 15.5C115.281 15.2417 115.307 14.9895 115.35 14.7448H113.875V20.7819C113.875 21.2018 114.191 21.5417 114.582 21.5417H124.419C124.606 21.5413 124.786 21.461 124.918 21.3186C125.051 21.1762 125.125 20.9832 125.125 20.7819V14.7448H123.65C123.693 14.9895 123.719 15.2417 123.719 15.5ZM119.5 18.5208C119.869 18.5207 120.235 18.4425 120.577 18.2905C120.918 18.1386 121.228 17.9159 121.489 17.6353C121.75 17.3546 121.957 17.0215 122.099 16.6549C122.24 16.2882 122.313 15.8953 122.312 15.4985C122.312 15.1017 122.24 14.7088 122.098 14.3422C121.957 13.9757 121.749 13.6426 121.488 13.3621C121.227 13.0816 120.917 12.8591 120.575 12.7074C120.234 12.5556 119.868 12.4776 119.499 12.4777C118.752 12.4779 118.037 12.7964 117.51 13.3632C116.982 13.93 116.686 14.6986 116.686 15.5C116.686 16.3014 116.983 17.0698 117.511 17.6364C118.038 18.2029 118.754 18.521 119.5 18.5208ZM122.875 12.3281H124.561C124.673 12.3281 124.781 12.2804 124.86 12.1955C124.939 12.1106 124.984 11.9953 124.984 11.875V10.064C124.984 9.94343 124.94 9.8278 124.86 9.74253C124.781 9.65727 124.673 9.60937 124.561 9.60937H122.875C122.763 9.60937 122.655 9.65727 122.576 9.74253C122.496 9.8278 122.452 9.94343 122.452 10.064V11.875C122.453 12.1242 122.643 12.3281 122.875 12.3281ZM119.5 1C115.92 1 112.486 2.52767 109.954 5.24695C107.422 7.96623 106 11.6544 106 15.5C106 19.3456 107.422 23.0338 109.954 25.753C112.486 28.4723 115.92 30 119.5 30C121.273 30 123.028 29.6249 124.666 28.8963C126.304 28.1676 127.792 27.0995 129.046 25.753C130.3 24.4066 131.294 22.8081 131.972 21.0489C132.651 19.2897 133 17.4042 133 15.5C133 13.5958 132.651 11.7103 131.972 9.95109C131.294 8.19187 130.3 6.5934 129.046 5.24695C127.792 3.9005 126.304 2.83244 124.666 2.10375C123.028 1.37505 121.273 1 119.5 1ZM126.531 21.374C126.531 22.2969 125.828 23.0521 124.969 23.0521H114.031C113.172 23.0521 112.469 22.2969 112.469 21.374V9.62599C112.469 8.70312 113.172 7.94792 114.031 7.94792H124.969C125.828 7.94792 126.531 8.70312 126.531 9.62599V21.374Z" fill="#636161"/>
<path d="M154.5 1C147.044 1 141 7.49177 141 15.5C141 23.5082 147.044 30 154.5 30C161.956 30 168 23.5082 168 15.5C168 7.49177 161.956 1 154.5 1ZM155.424 18.9362C154.558 18.8652 154.195 18.4045 153.517 17.9635C153.144 20.0645 152.689 22.0794 151.339 23.1321C150.921 19.9542 151.949 17.5708 152.427 15.0378C151.613 13.5652 152.524 10.6032 154.243 11.3312C156.356 12.2315 152.412 16.8065 155.06 17.379C157.824 17.9741 158.954 12.2254 157.239 10.3585C154.762 7.65943 150.03 10.2966 150.612 14.1603C150.752 15.1043 151.662 15.3913 150.975 16.6947C149.39 16.3171 148.916 14.9744 148.978 13.1845C149.075 10.2543 151.429 8.20167 153.788 7.91922C156.774 7.56276 159.575 9.09583 159.963 12.1136C160.398 15.5181 158.615 19.202 155.424 18.9362Z" fill="#636161"/>
<path d="M49 0C41.2679 0 35 6.49177 35 14.5C35 22.5082 41.2679 29 49 29C56.7321 29 63 22.5082 63 14.5C63 6.49177 56.7321 0 49 0ZM45.5729 20.5099H42.7379V11.0608H45.5729V20.5099ZM44.1379 9.90078C43.2425 9.90078 42.6635 9.24375 42.6635 8.43115C42.6635 7.60193 43.26 6.96453 44.1744 6.96453C45.0887 6.96453 45.6487 7.60193 45.6662 8.43115C45.6662 9.24375 45.0887 9.90078 44.1379 9.90078ZM55.9271 20.5099H53.0921V15.2733C53.0921 14.0544 52.6808 13.2267 51.6556 13.2267C50.8725 13.2267 50.4073 13.7871 50.2017 14.3263C50.1258 14.5181 50.1069 14.79 50.1069 15.0604V20.5084H47.2704V14.0741C47.2704 12.8944 47.234 11.9081 47.196 11.0593H49.6592L49.789 12.3718H49.8458C50.2192 11.7556 51.1335 10.8463 52.6633 10.8463C54.5285 10.8463 55.9271 12.1407 55.9271 14.9229V20.5099Z" fill="#636161"/>
<path d="M13.5 0C6.04406 0 0 6.49177 0 14.5C0 22.5082 6.04406 29 13.5 29C20.9559 29 27 22.5082 27 14.5C27 6.49177 20.9559 0 13.5 0ZM18.9914 11.8779C18.997 12.0018 18.9984 12.1256 18.9984 12.2465C18.9984 16.0225 16.3252 20.374 11.4342 20.374C9.98901 20.3766 8.57386 19.9308 7.35891 19.0902C7.56562 19.1173 7.77797 19.1279 7.99312 19.1279C9.23906 19.1279 10.3852 18.6733 11.295 17.906C10.7405 17.8943 10.2033 17.6971 9.75813 17.3419C9.31296 16.9867 8.98207 16.4911 8.81156 15.9243C9.20975 16.0056 9.61995 15.9886 10.0111 15.8745C9.40929 15.7438 8.86809 15.3935 8.47928 14.8831C8.09046 14.3728 7.87796 13.7336 7.87781 13.0742V13.0394C8.23641 13.2524 8.64703 13.3823 9.08297 13.3974C8.51878 12.994 8.11939 12.3743 7.96647 11.6651C7.81355 10.9559 7.91867 10.2108 8.26031 9.58208C8.92822 10.4642 9.76115 11.1858 10.7052 11.7002C11.6492 12.2145 12.6833 12.5103 13.7405 12.5682C13.6061 11.9554 13.6639 11.3121 13.905 10.7383C14.1461 10.1645 14.557 9.69233 15.0737 9.39519C15.5904 9.09805 16.1841 8.9926 16.7624 9.09523C17.3406 9.19786 17.8711 9.50283 18.2714 9.96271C18.8665 9.83625 19.4372 9.6018 19.9589 9.26943C19.7606 9.93119 19.3453 10.4931 18.7903 10.8508C19.3174 10.7826 19.8322 10.6304 20.3175 10.3992C19.961 10.973 19.5119 11.4738 18.9914 11.8779Z" fill="#636161"/>
</svg>
