<svg width="152" height="29" viewBox="0 0 152 29" fill="none" xmlns="http://www.w3.org/2000/svg">
<g clip-path="url(#clip0_337_260)">
<path d="M20.6836 27.4977C20.3803 27.4977 20.0785 27.4025 19.8188 27.2129L13.7118 22.7349L7.60482 27.2129C7.3518 27.399 7.04773 27.4986 6.73604 27.4975C6.42434 27.4964 6.12095 27.3947 5.8692 27.2068C5.61721 27.02 5.42925 26.7566 5.33208 26.4543C5.2349 26.1519 5.23345 25.826 5.32794 25.5227L7.60557 18.0067L1.5534 13.6462C1.30258 13.457 1.1163 13.1918 1.02092 12.8884C0.925542 12.5849 0.925886 12.2585 1.02191 11.9553C1.11868 11.6528 1.30599 11.389 1.55736 11.2013C1.80873 11.0135 2.11144 10.9113 2.42272 10.9091L9.91849 10.8976L12.305 3.56811C12.4035 3.26617 12.5924 3.00356 12.8449 2.81747C13.0975 2.63138 13.4009 2.53125 13.7122 2.53125C14.0235 2.53125 14.3269 2.63138 14.5794 2.81747C14.832 3.00356 15.0209 3.26617 15.1194 3.56811L17.4653 10.8976L24.9994 10.9091C25.311 10.9109 25.6142 11.013 25.8658 11.2011C26.1174 11.3891 26.3047 11.6534 26.401 11.9564C26.4974 12.2595 26.4979 12.5859 26.4024 12.8892C26.307 13.1925 26.1205 13.4574 25.8694 13.6462L19.8173 18.0067L22.0949 25.5227C22.1896 25.8259 22.1883 26.1518 22.0913 26.4542C21.9942 26.7566 21.8063 27.0199 21.5544 27.2068C21.3019 27.3962 20.9968 27.4981 20.6836 27.4977Z" fill="#FFAC33"/>
</g>
<path d="M51.8666 27.4977C51.5634 27.4977 51.2616 27.4025 51.0018 27.2129L44.8949 22.7349L38.7879 27.2129C38.5349 27.399 38.2308 27.4986 37.9191 27.4975C37.6074 27.4964 37.304 27.3947 37.0523 27.2068C36.8003 27.02 36.6123 26.7566 36.5151 26.4543C36.418 26.1519 36.4165 25.826 36.511 25.5227L38.7886 18.0067L32.7365 13.6462C32.4856 13.457 32.2994 13.1918 32.204 12.8884C32.1086 12.5849 32.1089 12.2585 32.205 11.9553C32.3017 11.6528 32.4891 11.389 32.7404 11.2013C32.9918 11.0135 33.2945 10.9113 33.6058 10.9091L41.1016 10.8976L43.488 3.56811C43.5865 3.26617 43.7754 3.00356 44.028 2.81747C44.2805 2.63138 44.5839 2.53125 44.8952 2.53125C45.2065 2.53125 45.5099 2.63138 45.7625 2.81747C46.015 3.00356 46.2039 3.26617 46.3024 3.56811L48.6484 10.8976L56.1824 10.9091C56.4941 10.9109 56.7972 11.013 57.0489 11.2011C57.3005 11.3891 57.4878 11.6534 57.5841 11.9564C57.6804 12.2595 57.6809 12.5859 57.5855 12.8892C57.4901 13.1925 57.3036 13.4574 57.0525 13.6462L51.0003 18.0067L53.278 25.5227C53.3726 25.8259 53.3714 26.1518 53.2743 26.4542C53.1773 26.7566 52.9894 27.0199 52.7375 27.2068C52.4849 27.3962 52.1798 27.4981 51.8666 27.4977Z" fill="#FFAC33"/>
<path d="M83.0497 27.4977C82.7464 27.4977 82.4446 27.4025 82.1849 27.2129L76.0779 22.7349L69.9709 27.2129C69.7179 27.399 69.4139 27.4986 69.1022 27.4975C68.7905 27.4964 68.4871 27.3947 68.2353 27.2068C67.9833 27.02 67.7954 26.7566 67.6982 26.4543C67.601 26.1519 67.5996 25.826 67.6941 25.5227L69.9717 18.0067L63.9195 13.6462C63.6687 13.457 63.4824 13.1918 63.387 12.8884C63.2917 12.5849 63.292 12.2585 63.388 11.9553C63.4848 11.6528 63.6721 11.389 63.9235 11.2013C64.1749 11.0135 64.4776 10.9113 64.7888 10.9091L72.2846 10.8976L74.6711 3.56811C74.7696 3.26617 74.9585 3.00356 75.211 2.81747C75.4636 2.63138 75.767 2.53125 76.0783 2.53125C76.3896 2.53125 76.693 2.63138 76.9456 2.81747C77.1981 3.00356 77.387 3.26617 77.4855 3.56811L79.8314 10.8976L87.3655 10.9091C87.6771 10.9109 87.9803 11.013 88.2319 11.2011C88.4835 11.3891 88.6708 11.6534 88.7672 11.9564C88.8635 12.2595 88.864 12.5859 88.7685 12.8892C88.6731 13.1925 88.4866 13.4574 88.2356 13.6462L82.1834 18.0067L84.461 25.5227C84.5557 25.8259 84.5544 26.1518 84.4574 26.4542C84.3603 26.7566 84.1725 27.0199 83.9205 27.2068C83.668 27.3962 83.3629 27.4981 83.0497 27.4977Z" fill="#FFAC33"/>
<g clip-path="url(#clip1_337_260)">
<path d="M114.233 27.4977C113.929 27.4977 113.628 27.4025 113.368 27.2129L107.261 22.7349L101.154 27.2129C100.901 27.399 100.597 27.4986 100.285 27.4975C99.9735 27.4964 99.6701 27.3947 99.4184 27.2068C99.1664 27.02 98.9784 26.7566 98.8813 26.4543C98.7841 26.1519 98.7826 25.826 98.8771 25.5227L101.155 18.0067L95.1026 13.6462C94.8518 13.457 94.6655 13.1918 94.5701 12.8884C94.4747 12.5849 94.4751 12.2585 94.5711 11.9553C94.6679 11.6528 94.8552 11.389 95.1065 11.2013C95.3579 11.0135 95.6606 10.9113 95.9719 10.9091L103.468 10.8976L105.854 3.56811C105.953 3.26617 106.142 3.00356 106.394 2.81747C106.647 2.63138 106.95 2.53125 107.261 2.53125C107.573 2.53125 107.876 2.63138 108.129 2.81747C108.381 3.00356 108.57 3.26617 108.669 3.56811L111.015 10.8976L118.549 10.9091C118.86 10.9109 119.163 11.013 119.415 11.2011C119.667 11.3891 119.854 11.6534 119.95 11.9564C120.047 12.2595 120.047 12.5859 119.952 12.8892C119.856 13.1925 119.67 13.4574 119.419 13.6462L113.366 18.0067L115.644 25.5227C115.739 25.8259 115.737 26.1518 115.64 26.4542C115.543 26.7566 115.356 27.0199 115.104 27.2068C114.851 27.3962 114.546 27.4981 114.233 27.4977Z" fill="#FFAC33"/>
</g>
<g clip-path="url(#clip2_337_260)">
<path d="M145.416 27.4977C145.113 27.4977 144.811 27.4025 144.551 27.2129L138.444 22.7349L132.337 27.2129C132.084 27.399 131.78 27.4986 131.468 27.4975C131.157 27.4964 130.853 27.3947 130.601 27.2068C130.349 27.02 130.161 26.7566 130.064 26.4543C129.967 26.1519 129.966 25.826 130.06 25.5227L132.338 18.0067L126.286 13.6462C126.035 13.457 125.849 13.1918 125.753 12.8884C125.658 12.5849 125.658 12.2585 125.754 11.9553C125.851 11.6528 126.038 11.389 126.29 11.2013C126.541 11.0135 126.844 10.9113 127.155 10.9091L134.651 10.8976L137.037 3.56811C137.136 3.26617 137.325 3.00356 137.577 2.81747C137.83 2.63138 138.133 2.53125 138.444 2.53125C138.756 2.53125 139.059 2.63138 139.312 2.81747C139.564 3.00356 139.753 3.26617 139.852 3.56811L142.198 10.8976L149.732 10.9091C150.043 10.9109 150.346 11.013 150.598 11.2011C150.85 11.3891 151.037 11.6534 151.133 11.9564C151.23 12.2595 151.23 12.5859 151.135 12.8892C151.039 13.1925 150.853 13.4574 150.602 13.6462L144.55 18.0067L146.827 25.5227C146.922 25.8259 146.921 26.1518 146.824 26.4542C146.726 26.7566 146.539 27.0199 146.287 27.2068C146.034 27.3962 145.729 27.4981 145.416 27.4977Z" fill="#FFAC33"/>
</g>
<defs>
<clipPath id="clip0_337_260">
<rect width="27.0253" height="27.6323" fill="white" transform="translate(0.199135 0.919434)"/>
</clipPath>
<clipPath id="clip1_337_260">
<rect width="27.0253" height="27.6323" fill="white" transform="translate(93.7483 0.919434)"/>
</clipPath>
<clipPath id="clip2_337_260">
<rect width="27.0253" height="27.6323" fill="white" transform="translate(124.931 0.919434)"/>
</clipPath>
</defs>
</svg>
