<svg width="144" height="144" viewBox="0 0 144 144" fill="none" xmlns="http://www.w3.org/2000/svg">
<path d="M72 18C53.46 18 38.88 32.085 36.8415 50.0625C32.9204 50.6943 29.2431 52.3746 26.1988 54.9254C23.1545 57.4761 20.8565 60.8026 19.548 64.5525C8.478 67.743 0 77.616 0 90C0 104.958 12.042 117 27 117H117C131.958 117 144 104.958 144 90C144 82.08 140.152 74.988 134.577 70.029C133.533 54.216 120.92 41.598 105.048 40.779C99.63 27.5985 87.201 18 72 18ZM72 27C84.429 27 94.365 34.965 97.875 46.26L98.865 49.5H103.5C115.897 49.5 126 59.6025 126 72V74.25L127.827 75.6585C130.032 77.3484 131.824 79.5178 133.066 82.0025C134.309 84.4872 134.97 87.222 135 90C135 100.242 127.242 108 117 108H27C16.758 108 9 100.242 9 90C9 80.91 15.525 73.854 23.76 72.423L26.7165 71.8605L27.279 68.8995C28.629 62.838 34.002 58.5 40.5 58.5H45V54C45 38.835 56.835 27 72 27ZM72 52.173L68.76 55.2645L50.76 73.2645L57.24 79.7445L67.5 69.4665V99H76.5V69.4665L86.76 79.7355L93.24 73.2555L75.24 55.2555L72 52.173Z" fill="#303C4F"/>
</svg>
